<svg width="40" height="9" viewBox="0 0 40 9" fill="none" xmlns="http://www.w3.org/2000/svg">
<path d="M3.82031 8H0.46875V7.69531H1.40625V1.27344H0.46875V0.96875H5.87109L5.92969 3.07812H5.69531L5.53125 2.52734C5.52344 2.49609 5.51172 2.45703 5.49609 2.41016C5.25391 1.65234 4.85156 1.27344 4.28906 1.27344H2.41406V4.20312H4.82812V4.54297H2.41406V7.69531H3.82031V8ZM8.83594 7.69531C8.88281 7.69531 8.92578 7.69922 8.96484 7.70703C9.06641 7.72266 9.11719 7.82031 9.11719 8H6.39844V7.69531C6.97656 7.69531 7.27344 7.49219 7.28906 7.08594V3.32422H6.39844V3.01953H8.22656V7.69531H8.83594ZM12.3867 7.70703C12.4336 7.70703 12.4727 7.71094 12.5039 7.71875C12.6211 7.73438 12.6797 7.82812 12.6797 8H9.78516V7.70703C10.0508 7.70703 10.2422 7.6875 10.3594 7.64844C10.5625 7.57812 10.6641 7.36328 10.6641 7.00391V3.3125H9.78516V3.01953H11.4844L11.5312 4.17969C11.6328 3.94531 11.7695 3.73438 11.9414 3.54688C12.3086 3.14844 12.7266 2.94922 13.1953 2.94922C13.2656 2.94922 13.3398 2.95703 13.418 2.97266C13.7773 3.05078 13.957 3.26562 13.957 3.61719C13.957 3.66406 13.9492 3.71094 13.9336 3.75781C13.8711 3.98438 13.7227 4.09766 13.4883 4.09766C13.4414 4.09766 13.3945 4.08984 13.3477 4.07422C13.2383 4.04297 13.1211 3.91797 12.9961 3.69922C12.8867 3.50391 12.7656 3.40625 12.6328 3.40625C12.5156 3.41406 12.3711 3.5 12.1992 3.66406C11.7617 4.09375 11.543 4.66406 11.543 5.375V7.70703H12.3867ZM18.5977 8.11719C18.0508 8.10938 17.7305 7.75781 17.6367 7.0625C17.5664 7.22656 17.4609 7.38281 17.3203 7.53125C16.9297 7.92188 16.4492 8.11719 15.8789 8.11719C15.6445 8.11719 15.4219 8.07422 15.2109 7.98828C14.6875 7.76953 14.4258 7.36328 14.4258 6.76953C14.4258 6.59766 14.4492 6.4375 14.4961 6.28906C14.7617 5.52344 15.8125 5.14062 17.6484 5.14062V4.40234C17.625 3.64453 17.2461 3.24219 16.5117 3.19531C16.1992 3.19531 15.9688 3.29297 15.8203 3.48828C15.7812 3.54297 15.707 3.71484 15.5977 4.00391C15.5117 4.23047 15.3789 4.34375 15.1992 4.34375C15.1602 4.34375 15.1211 4.33984 15.082 4.33203C14.8555 4.29297 14.7422 4.15234 14.7422 3.91016C14.7422 3.77734 14.7891 3.64453 14.8828 3.51172C15.1797 3.10547 15.7656 2.90234 16.6406 2.90234C16.7109 2.90234 16.7812 2.90234 16.8516 2.90234C17.9688 2.96484 18.5273 3.55469 18.5273 4.67188V7.14453C18.5352 7.53516 18.6406 7.73828 18.8438 7.75391C19.0938 7.74609 19.2461 7.45703 19.3008 6.88672L19.6055 6.89844C19.6055 6.9375 19.6016 6.98047 19.5938 7.02734C19.5312 7.75391 19.1992 8.11719 18.5977 8.11719ZM16.2656 7.64844C16.4375 7.64844 16.6133 7.60938 16.793 7.53125C17.2461 7.3125 17.5312 6.93359 17.6484 6.39453V5.45703C17.0391 5.46484 16.5742 5.50391 16.2539 5.57422C15.6523 5.71484 15.3516 6.04688 15.3516 6.57031C15.3516 6.70312 15.3633 6.82422 15.3867 6.93359C15.4961 7.41016 15.7891 7.64844 16.2656 7.64844ZM19.8984 3.3125V3.01953H20.7188V1.90625L21.5977 1.66016V3.01953H23.4141V3.3125H21.5977V6.875C21.6055 7.46094 21.8203 7.76172 22.2422 7.77734C22.6172 7.72266 22.9023 7.37109 23.0977 6.72266L23.4141 6.78125C23.4141 6.78906 23.4141 6.79688 23.4141 6.80469C23.2344 7.6875 22.7852 8.12891 22.0664 8.12891C21.2227 8.09766 20.7734 7.59375 20.7188 6.61719V3.3125H19.8984ZM29.0977 8H26.2266V7.69531H27.1641V1.27344H26.2266V0.96875H29.0977V1.27344H28.1719V4.4375L31.6055 1.27344H30.668V0.96875H32.7773C32.7773 1.00781 32.7734 1.04687 32.7656 1.08594C32.7422 1.21094 32.6445 1.27344 32.4727 1.27344C32.3945 1.27344 32.3203 1.28125 32.25 1.29688C32.1016 1.33594 31.8828 1.49219 31.5938 1.76562L29.5078 3.71094L32.5664 7.69531H32.8828C32.9219 7.69531 32.9609 7.69922 33 7.70703C33.125 7.73047 33.1875 7.82812 33.1875 8H31.5586L28.7812 4.39062L28.1719 4.96484V7.69531H28.793C28.832 7.69531 28.8711 7.69922 28.9102 7.70703C29.0352 7.73047 29.0977 7.82812 29.0977 8ZM35.9766 7.69531C36.0234 7.69531 36.0664 7.69922 36.1055 7.70703C36.207 7.72266 36.2578 7.82031 36.2578 8H33.5391V7.69531C34.1172 7.69531 34.4141 7.49219 34.4297 7.08594V3.32422H33.5391V3.01953H35.3672V7.69531H35.9766ZM39.3281 7.70703C39.375 7.70703 39.4141 7.71094 39.4453 7.71875C39.5625 7.73438 39.6211 7.82812 39.6211 8H36.9375V7.70703C37.2031 7.70703 37.3945 7.6875 37.5117 7.64844C37.7148 7.57812 37.8164 7.36328 37.8164 7.00391V0.675781H36.9375V0.382812H38.6953V7.70703H39.3281Z" fill="#62748E"/>
</svg>
